<svg width="24" height="18" viewBox="0 0 24 18" fill="none" xmlns="http://www.w3.org/2000/svg">
<path d="M8.99999 12.4029C10.9948 12.1985 13.0052 12.1985 15 12.4029M4.2308 16.3762C4.25418 16.4748 4.29726 16.5676 4.35746 16.6491C4.41765 16.7306 4.49371 16.7991 4.58107 16.8504C4.66842 16.9018 4.76525 16.9349 4.86574 16.9479C4.96624 16.9608 5.06831 16.9533 5.16582 16.9258C9.63668 15.6913 14.3584 15.6909 18.8295 16.9245C18.927 16.952 19.029 16.9595 19.1295 16.9465C19.2299 16.9336 19.3267 16.9005 19.4141 16.8491C19.5014 16.7978 19.5774 16.7294 19.6376 16.6479C19.6978 16.5665 19.7409 16.4737 19.7643 16.3751L22.1539 6.22043C22.1859 6.08449 22.1793 5.94232 22.1348 5.80992C22.0904 5.67753 22.0098 5.56018 21.9023 5.47108C21.7948 5.38199 21.6645 5.32469 21.5261 5.30564C21.3878 5.2866 21.2468 5.30656 21.1192 5.36328L16.377 7.47093C16.2058 7.54704 16.0122 7.55629 15.8345 7.49685C15.6568 7.43742 15.5078 7.31361 15.4168 7.14981L12.6556 2.17971C12.5907 2.06279 12.4956 1.96537 12.3803 1.89754C12.2651 1.82971 12.1337 1.79395 12 1.79395C11.8662 1.79395 11.7349 1.82971 11.6196 1.89754C11.5044 1.96537 11.4093 2.06279 11.3444 2.17971L8.58321 7.14981C8.49221 7.31361 8.34318 7.43742 8.16547 7.49685C7.98775 7.55628 7.79423 7.54704 7.62299 7.47093L2.88004 5.36296C2.75245 5.30625 2.61156 5.28628 2.47323 5.30531C2.3349 5.32434 2.20464 5.38161 2.09709 5.47066C1.98955 5.55972 1.909 5.67702 1.86452 5.80938C1.82003 5.94173 1.81338 6.08388 1.84531 6.21981L4.2308 16.3762Z" stroke="#DA251D" stroke-width="2" stroke-linecap="round" stroke-linejoin="round"/>
</svg>
