<svg width="353" height="51" viewBox="0 0 353 51" fill="none" xmlns="http://www.w3.org/2000/svg">
<g clip-path="url(#clip0_68_1555)">
<path d="M68.4649 20.2148C68.1651 20.5729 48.0981 50.716 48.0981 50.8148C48.0981 50.8519 49.9693 50.8766 52.2723 50.8519C56.4224 50.8025 56.4344 50.8025 57.3939 50.4691C57.9217 50.2962 58.7013 49.9381 59.1331 49.6787C60.6565 48.7649 61.1482 48.1105 66.4978 40.0715C69.2566 35.9223 71.5715 32.477 71.6555 32.4029C71.7514 32.2918 73.3827 34.5887 78.1445 41.5657L84.5016 50.8766L87.3683 50.8395L90.247 50.8148L100.466 35.5025C106.092 27.0807 110.698 20.1531 110.698 20.0913C110.71 19.9555 104.125 19.9925 103.069 20.1407C101.93 20.3013 100.718 20.7211 99.8187 21.2645C98.3314 22.1536 97.6477 23.055 92.3581 31.0075C89.3115 35.5889 87.3324 38.4538 87.2604 38.3921C87.2004 38.3427 84.4177 34.1812 81.0832 29.1552L75.0259 20.0172L71.8354 20.0049C68.9447 20.0049 68.6328 20.0296 68.4649 20.2148Z" fill="#DA251D"/>
<path d="M121.157 20.0048C121.157 20.0048 100.634 50.7777 100.634 50.8148C100.634 50.8518 101.99 50.8765 103.633 50.8765C107.207 50.8765 107.975 50.753 109.582 49.9503C111.106 49.1847 112.125 48.1845 113.456 46.1223L114.488 44.5169L135.395 44.4552L136.57 46.184C138.009 48.3327 138.909 49.2094 140.396 49.9503C142.087 50.7901 142.771 50.8888 146.945 50.8518L150.484 50.8148L129.697 20.0666L125.427 20.0295L121.157 20.0048ZM128.45 33.3167C129.901 35.6506 131.1 37.577 131.1 37.614C131.1 37.6387 128.378 37.6634 125.043 37.6634C121.709 37.6634 118.986 37.6264 118.986 37.577C118.986 37.5399 120.365 35.3542 122.057 32.7487L125.127 27.9944C125.319 28.2908 126.986 30.9828 128.45 33.3167Z" fill="#DA251D"/>
<path d="M165.645 20.1283C162.622 20.5358 159.791 22.7462 158.676 25.5617C158.016 27.2658 158.04 26.6855 158.004 39.2441L157.956 50.8765H167.564L167.564 39.775L179.019 39.701L179.978 39.3552C182.101 38.5772 183.397 37.4164 185.292 34.5392L186.407 32.8474H167.564L167.564 29.822V26.8089C178.671 26.7719 187.859 26.7719 189.862 25.784C191.193 25.1295 192.453 23.8453 193.844 21.7336C194.396 20.8939 194.876 20.153 194.888 20.1036C194.948 19.9801 166.544 20.0048 165.645 20.1283Z" fill="#DA251D"/>
<path d="M206.906 20.1283C204.855 20.4 203.02 21.4126 201.617 23.0303C201.221 23.4872 198.99 26.7472 198.99 26.8707C198.99 26.8954 203.152 26.9201 208.226 26.9201H217.461V38.8983V50.8765H222.259H227.057V38.8983V26.9201H231.663C236.557 26.9201 237.636 26.8336 238.968 26.3644C240.911 25.6729 242.158 24.5491 243.849 21.9806C244.509 20.968 245.049 20.116 245.049 20.0789C245.049 19.9678 207.674 20.0172 206.906 20.1283Z" fill="#DA251D"/>
<path d="M244.653 35.4036L234.374 50.8148L237.348 50.8518C240.599 50.8889 241.391 50.8024 242.71 50.2714C244.545 49.5429 245.769 48.4068 247.28 46.0358L248.287 44.4552L258.747 44.4799L269.206 44.5169L270.285 46.1223C271.989 48.6661 273.26 49.7528 275.335 50.469C276.283 50.8024 276.331 50.8024 280.301 50.8518L284.307 50.8889L284.139 50.6295C284.043 50.4937 279.353 43.5414 273.716 35.1937L263.461 20.0172L259.191 20.0048H254.932L244.653 35.4036ZM261.961 32.8845C263.557 35.453 264.84 37.577 264.816 37.614C264.78 37.6387 262.045 37.6511 258.723 37.6387L252.701 37.6017L255.784 32.8104C257.487 30.1801 258.915 28.0685 258.963 28.1179C259.011 28.1673 260.354 30.316 261.961 32.8845Z" fill="#DA251D"/>
<path d="M274.508 20.5235C274.855 22.9809 276.463 25.2901 278.562 26.352C280.205 27.1917 279.689 27.1671 294.143 27.1671H307.181V29.5133V31.8472L296.542 31.8842L285.89 31.9213L285.207 32.2671C283.407 33.1809 282.508 35.5271 283.288 37.33C283.575 37.9845 290.904 48.9131 291.576 49.6787C291.804 49.938 292.271 50.3085 292.595 50.4813L293.207 50.8148L305.789 50.8518L318.372 50.8765L318.288 50.1973C317.988 47.5053 315.865 44.9985 313.118 44.0724C312.29 43.7884 312.23 43.7884 304.902 43.739L297.525 43.7019L296.05 41.3927L294.574 39.0835L302.107 39.0094C310.203 38.9477 310.095 38.9477 311.451 38.2809C312.182 37.9104 313.046 36.9966 313.43 36.1692C314.042 34.8726 314.078 34.5022 314.078 29.4516C314.078 25.253 314.054 24.685 313.862 24.0181C313.262 22.03 312.146 20.8816 310.215 20.2888C309.568 20.0913 308.2 20.0666 291.972 20.0295L274.436 19.9925L274.508 20.5235Z" fill="#0B26BF"/>
<path d="M318.72 26.3891C318.768 32.1312 318.792 32.8598 318.983 33.4649C319.859 36.2063 321.994 38.2809 324.525 38.8365C325.173 38.9724 326.42 39.0218 330.162 39.0218H334.972L335.032 41.8373C335.092 44.4305 335.116 44.7145 335.416 45.6407C336.004 47.5053 337.323 49.123 338.966 49.9997C339.818 50.4566 341.137 50.8765 341.701 50.8765H341.965L341.989 44.9738L342.025 39.0835L343.944 39.0094C346.019 38.923 346.751 38.7625 347.782 38.1574C348.598 37.6758 348.97 37.2559 351.117 34.391L352.976 31.9213L347.471 31.8842L341.965 31.8595V25.9322V20.0048H338.487H335.008V25.9322V31.8595H330.33H325.652V25.9322V20.0048H322.162H318.684L318.72 26.3891Z" fill="#0B26BF"/>
<path d="M16.7115 0.135348C13.6597 0.36837 11.4076 1.44027 10.0119 3.33552C9.7742 3.65398 9.40074 4.27537 9.23476 4.61714C8.7934 5.52204 8.40862 6.86192 8.22377 8.13188C8.15587 8.60958 8.03516 9.77469 8.03516 9.98441V10.0737L22.8717 10.0854L37.7046 10.0932L38.0629 10.198C38.6816 10.3767 39.2588 10.6602 39.6511 10.9748L39.7907 11.0835H48.2784C53.8992 11.0835 56.9321 11.068 57.2528 11.0408C60.9082 10.734 64.1335 9.18825 66.6195 6.5551C67.5249 5.59583 67.7851 5.24241 69.7241 2.33352L71.218 0.0926275L44.1817 0.0965109C29.3111 0.100395 16.9492 0.119813 16.7115 0.135348Z" fill="#0B26BF"/>
<path d="M2.83301 11.5301C1.56928 11.8136 0.596021 12.7146 0.226333 13.938C0.128252 14.2603 0.0792118 15.0448 0.0754395 16.2993V17.1032L18.3071 17.0916L36.535 17.0838L36.95 16.9984C37.6592 16.8547 39.0587 16.7304 40.1301 16.7148C40.1716 16.7148 40.1791 16.4779 40.164 15.441C40.1489 14.0157 40.1414 13.9729 39.8585 13.3554C39.4737 12.5204 38.7909 11.9185 37.8742 11.6L37.5536 11.4913L20.314 11.4835C5.72262 11.4796 3.03672 11.4874 2.83301 11.5301Z" fill="#DA251D"/>
<path d="M39.1795 17.7285C35.5166 17.9965 32.3139 19.4839 29.7826 22.0938C29.0998 22.7967 28.9791 22.9443 26.9534 25.5619L25.2483 27.764L33.3927 27.7756L41.5334 27.7834V32.2419C41.5334 37.1315 41.5334 37.112 41.3071 37.8111C41.243 38.0053 41.1072 38.3315 41.0053 38.5374C40.3414 39.8617 39.055 40.8249 37.6102 41.0812C37.2896 41.1394 35.9278 41.1433 22.6793 41.1433H8.10303L8.12566 41.4035C8.1747 41.9123 8.34068 42.8754 8.46894 43.423C9.3479 47.097 11.483 49.1709 15.1082 49.8622C16.4059 50.1069 15.5232 50.0914 27.8776 50.103L39.1003 50.1108L49.8514 33.9546C55.7664 25.0648 60.6177 17.7712 60.6328 17.7401C60.6592 17.6935 59.1578 17.6858 50.1268 17.6897C44.3325 17.6935 39.4058 17.7091 39.1795 17.7285Z" fill="#0B26BF"/>
<path d="M0.780928 19.2393C0.464052 19.3208 0.230167 19.5305 0.083046 19.8568C-0.165928 20.416 0.16981 21.1151 0.758294 21.2588C1.21475 21.3714 1.69006 21.1423 1.90131 20.7073C2.15028 20.1908 1.9164 19.5111 1.41468 19.2936C1.2487 19.2237 0.950682 19.1965 0.780928 19.2393Z" fill="#DA251D"/>
<path d="M3.65915 19.2742C3.04803 19.3985 2.69721 20.0936 2.9575 20.6568C3.13102 21.0374 3.43281 21.2316 3.83645 21.2316C4.34572 21.2277 4.73427 20.8548 4.77953 20.3189C4.83612 19.6859 4.26272 19.1538 3.65915 19.2742Z" fill="#DA251D"/>
<path d="M6.29998 19.3791C6.00197 19.5111 5.73413 19.915 5.73413 20.2335C5.73413 20.7461 6.13777 21.1772 6.62063 21.1811C6.89978 21.1811 7.06199 21.119 7.25438 20.9481C7.75233 20.4937 7.63916 19.6742 7.03559 19.3907C6.85074 19.3014 6.48483 19.2975 6.29998 19.3791Z" fill="#DA251D"/>
<path d="M9.12903 19.4373C8.78197 19.6004 8.62354 19.8528 8.62354 20.249C8.62354 20.6451 8.78197 20.8976 9.12903 21.0607C9.56662 21.2665 10.1136 21.0335 10.2834 20.5713C10.3814 20.3111 10.3437 19.9461 10.1966 19.7363C9.95517 19.3907 9.49872 19.2625 9.12903 19.4373Z" fill="#DA251D"/>
<path d="M11.9734 19.4645C11.7546 19.5732 11.5547 19.8296 11.5019 20.0742C11.3661 20.6956 11.947 21.2432 12.5393 21.0529C13.2107 20.8354 13.3352 19.9267 12.7505 19.5266C12.5468 19.3868 12.1922 19.3596 11.9734 19.4645Z" fill="#DA251D"/>
<path d="M14.8817 19.4801C14.4102 19.6509 14.2103 20.2296 14.4706 20.6646C14.8478 21.2899 15.7947 21.0801 15.9003 20.3461C15.987 19.7713 15.4174 19.2859 14.8817 19.4801Z" fill="#DA251D"/>
<path d="M17.7151 19.5266C17.3567 19.6626 17.1568 20.0587 17.2549 20.4432C17.3114 20.6685 17.4208 20.8044 17.6321 20.917C17.8396 21.0258 18.1564 21.0025 18.3677 20.8588C18.8015 20.5636 18.7826 19.8529 18.33 19.5927C18.1451 19.4839 17.8999 19.4567 17.7151 19.5266Z" fill="#DA251D"/>
<path d="M20.5971 19.5538C20.2915 19.6509 20.0991 19.9189 20.0991 20.2529C20.1029 20.7578 20.5858 21.084 21.0384 20.8898C21.3327 20.7617 21.4836 20.5092 21.4572 20.1869C21.4194 19.7325 21.012 19.4296 20.5971 19.5538Z" fill="#DA251D"/>
<path d="M23.2716 19.6781C23.0717 19.8179 22.9736 19.9966 22.9736 20.2257C22.9736 20.8354 23.6376 21.1267 24.0525 20.6995C24.3468 20.3966 24.2939 19.8839 23.9469 19.6664C23.7696 19.5538 23.4414 19.5616 23.2716 19.6781Z" fill="#DA251D"/>
<path d="M26.1498 19.6937C25.9763 19.7791 25.8706 19.9539 25.848 20.1752C25.8178 20.4976 25.9838 20.7461 26.2856 20.8316C26.5798 20.9131 26.9231 20.6995 27.0061 20.3811C27.1381 19.8762 26.6138 19.4568 26.1498 19.6937Z" fill="#DA251D"/>
<path d="M28.979 19.7403C28.7828 19.8684 28.6998 20.0393 28.7187 20.2801C28.73 20.4587 28.7526 20.5092 28.8733 20.6296C29.0016 20.7655 29.0242 20.7733 29.2506 20.7733C29.4581 20.7733 29.5071 20.7578 29.5939 20.6762C29.7561 20.5209 29.8127 20.3772 29.79 20.1597C29.7787 20.0082 29.7485 19.9422 29.6391 19.8296C29.526 19.7131 29.4731 19.6898 29.3034 19.6781C29.1487 19.6665 29.077 19.682 28.979 19.7403Z" fill="#DA251D"/>
<path d="M0.0944125 29.1505C0.0604615 36.1411 0.0680062 36.7664 0.181176 37.2014C0.498052 38.4092 1.42227 39.3297 2.60301 39.617C2.87085 39.6831 3.76489 39.687 20.0878 39.687H37.2896L37.6518 39.586C38.742 39.2753 39.6058 38.4714 39.9717 37.4305C40.1754 36.8635 40.1754 36.8208 40.1754 32.6147V28.7155L31.7631 28.7077L23.3471 28.6961L25.3162 26.1523C26.3989 24.7541 27.3344 23.5424 27.3948 23.4609L27.508 23.3172H13.8144H0.120819L0.0944125 29.1505ZM8.45013 27.997V29.2981H8.05781H7.66926L7.2958 28.8708L6.92233 28.4475L5.51903 28.4436H4.11195V28.6378V28.832H5.42849H6.74504L7.06946 29.1971L7.39388 29.5621V30.1874V30.8127H5.75291H4.11195V31.0069V31.2011H5.75291H7.39388V31.7953V32.3856L7.05059 32.7662L6.70731 33.1429H5.40963H4.11195V33.3371V33.5313H5.50394H6.89216L7.28448 33.0847L7.6768 32.638H8.06535H8.45013V33.9585V35.279H8.63875H8.82736L8.83491 33.9663L8.84622 32.6575L9.24232 32.6458L9.63841 32.6342L10.027 33.0847L10.4155 33.5313H11.8075H13.2033V34.0051C13.1995 34.2964 13.1806 34.5372 13.1505 34.6265C13.075 34.844 12.8902 35.0576 12.6676 35.1857L12.4677 35.2984L8.73683 35.31C4.56463 35.3217 4.75702 35.3333 4.44768 35.0498C4.35715 34.9683 4.24021 34.8168 4.18739 34.7119L4.09309 34.5216V31.0069C4.09309 27.5232 4.09309 27.4921 4.1723 27.3174C4.27416 27.0882 4.459 26.9018 4.69666 26.7892L4.88528 26.696H6.66959H8.45013V27.997ZM12.5997 26.7775C12.826 26.8824 13.0033 27.0649 13.1127 27.2979C13.192 27.4688 13.2033 27.5504 13.2033 27.9659V28.4436H11.7924H10.3853L10.0156 28.8708L9.64596 29.2981H9.23855H8.82736V27.997V26.696H10.6305C12.3583 26.696 12.4375 26.6999 12.5997 26.7775ZM13.2033 29.8224V30.8127H11.5623H9.92134V30.1874V29.5621L10.2344 29.201L10.5438 28.8398L11.8754 28.8359L13.2033 28.832V29.8224ZM8.45013 30.2496V30.8127H8.11062H7.77111V30.2496V29.6864H8.11062H8.45013V30.2496ZM9.54411 30.2496V30.8127H9.18573H8.82736V30.2496V29.6864H9.18573H9.54411V30.2496ZM8.45013 31.7254V32.2497H8.11062H7.77111V31.7254V31.2011H8.11062H8.45013V31.7254ZM9.54411 31.7254V32.2497H9.18573H8.82736V31.7254V31.2011H9.18573H9.54411V31.7254ZM13.2033 32.1603V33.1235L11.8716 33.1041L10.54 33.0847L10.2307 32.7351L9.92511 32.3856L9.92134 31.7914V31.2011H11.5623H13.2033V32.1603Z" fill="#DA251D"/>
</g>
<defs>
<clipPath id="clip0_68_1555">
<rect width="353" height="51" fill="white"/>
</clipPath>
</defs>
</svg>
