<svg width="24" height="29" viewBox="0 0 24 29" fill="none" xmlns="http://www.w3.org/2000/svg">
<mask id="mask0_68_1777" style="mask-type:alpha" maskUnits="userSpaceOnUse" x="0" y="5" width="24" height="24">
<rect y="5" width="24" height="24" fill="#D9D9D9"/>
</mask>
<g mask="url(#mask0_68_1777)">
<path d="M4 26V10C4 9.45 4.19583 8.97917 4.5875 8.5875C4.97917 8.19583 5.45 8 6 8H12C12.55 8 13.0208 8.19583 13.4125 8.5875C13.8042 8.97917 14 9.45 14 10V17H15C15.55 17 16.0208 17.1958 16.4125 17.5875C16.8042 17.9792 17 18.45 17 19V23.5C17 23.7833 17.0958 24.0208 17.2875 24.2125C17.4792 24.4042 17.7167 24.5 18 24.5C18.2833 24.5 18.5208 24.4042 18.7125 24.2125C18.9042 24.0208 19 23.7833 19 23.5V16.3C18.85 16.3833 18.6917 16.4375 18.525 16.4625C18.3583 16.4875 18.1833 16.5 18 16.5C17.3 16.5 16.7083 16.2583 16.225 15.775C15.7417 15.2917 15.5 14.7 15.5 14C15.5 13.4667 15.6458 12.9875 15.9375 12.5625C16.2292 12.1375 16.6167 11.8333 17.1 11.65L15 9.55L16.05 8.5L19.75 12.1C20 12.35 20.1875 12.6417 20.3125 12.975C20.4375 13.3083 20.5 13.65 20.5 14V23.5C20.5 24.2 20.2583 24.7917 19.775 25.275C19.2917 25.7583 18.7 26 18 26C17.3 26 16.7083 25.7583 16.225 25.275C15.7417 24.7917 15.5 24.2 15.5 23.5V18.5H14V26H4ZM6 15H12V10H6V15ZM18 15C18.2833 15 18.5208 14.9042 18.7125 14.7125C18.9042 14.5208 19 14.2833 19 14C19 13.7167 18.9042 13.4792 18.7125 13.2875C18.5208 13.0958 18.2833 13 18 13C17.7167 13 17.4792 13.0958 17.2875 13.2875C17.0958 13.4792 17 13.7167 17 14C17 14.2833 17.0958 14.5208 17.2875 14.7125C17.4792 14.9042 17.7167 15 18 15ZM6 24H12V17H6V24Z" fill="#DA251D"/>
</g>
</svg>
