<svg width="24" height="29" viewBox="0 0 24 29" fill="none" xmlns="http://www.w3.org/2000/svg">
<g clip-path="url(#clip0_68_1784)">
<path d="M18.75 10.25L5.25 23.75" stroke="#DA251D" stroke-width="2" stroke-linecap="round" stroke-linejoin="round"/>
<path d="M7.125 14.75C8.57475 14.75 9.75 13.5747 9.75 12.125C9.75 10.6753 8.57475 9.5 7.125 9.5C5.67525 9.5 4.5 10.6753 4.5 12.125C4.5 13.5747 5.67525 14.75 7.125 14.75Z" stroke="#DA251D" stroke-width="2" stroke-linecap="round" stroke-linejoin="round"/>
<path d="M16.875 24.5C18.3247 24.5 19.5 23.3247 19.5 21.875C19.5 20.4253 18.3247 19.25 16.875 19.25C15.4253 19.25 14.25 20.4253 14.25 21.875C14.25 23.3247 15.4253 24.5 16.875 24.5Z" stroke="#DA251D" stroke-width="2" stroke-linecap="round" stroke-linejoin="round"/>
</g>
<defs>
<clipPath id="clip0_68_1784">
<rect width="24" height="24" fill="white" transform="translate(0 5)"/>
</clipPath>
</defs>
</svg>
