<svg width="17" height="18" viewBox="0 0 17 18" fill="none" xmlns="http://www.w3.org/2000/svg">
<path d="M0.5 18V2C0.5 1.45 0.695833 0.979167 1.0875 0.5875C1.47917 0.195833 1.95 0 2.5 0H8.5C9.05 0 9.52083 0.195833 9.9125 0.5875C10.3042 0.979167 10.5 1.45 10.5 2V9H11.5C12.05 9 12.5208 9.19583 12.9125 9.5875C13.3042 9.97917 13.5 10.45 13.5 11V15.5C13.5 15.7833 13.5958 16.0208 13.7875 16.2125C13.9792 16.4042 14.2167 16.5 14.5 16.5C14.7833 16.5 15.0208 16.4042 15.2125 16.2125C15.4042 16.0208 15.5 15.7833 15.5 15.5V8.3C15.35 8.38333 15.1917 8.4375 15.025 8.4625C14.8583 8.4875 14.6833 8.5 14.5 8.5C13.8 8.5 13.2083 8.25833 12.725 7.775C12.2417 7.29167 12 6.7 12 6C12 5.46667 12.1458 4.9875 12.4375 4.5625C12.7292 4.1375 13.1167 3.83333 13.6 3.65L11.5 1.55L12.55 0.5L16.25 4.1C16.5 4.35 16.6875 4.64167 16.8125 4.975C16.9375 5.30833 17 5.65 17 6V15.5C17 16.2 16.7583 16.7917 16.275 17.275C15.7917 17.7583 15.2 18 14.5 18C13.8 18 13.2083 17.7583 12.725 17.275C12.2417 16.7917 12 16.2 12 15.5V10.5H10.5V18H0.5ZM2.5 7H8.5V2H2.5V7ZM14.5 7C14.7833 7 15.0208 6.90417 15.2125 6.7125C15.4042 6.52083 15.5 6.28333 15.5 6C15.5 5.71667 15.4042 5.47917 15.2125 5.2875C15.0208 5.09583 14.7833 5 14.5 5C14.2167 5 13.9792 5.09583 13.7875 5.2875C13.5958 5.47917 13.5 5.71667 13.5 6C13.5 6.28333 13.5958 6.52083 13.7875 6.7125C13.9792 6.90417 14.2167 7 14.5 7ZM2.5 16H8.5V9H2.5V16Z" fill="#7A81A6"/>
</svg>
